<svg width="22" height="21" viewBox="0 0 22 21" fill="none" xmlns="http://www.w3.org/2000/svg">
<path fill-rule="evenodd" clip-rule="evenodd" d="M3 6C1.346 6 0 4.654 0 3C0 1.346 1.346 0 3 0C4.654 0 6 1.346 6 3C6 4.654 4.654 6 3 6ZM3 1C1.897 1 1 1.897 1 3C1 4.103 1.897 5 3 5C4.103 5 5 4.103 5 3C5 1.897 4.103 1 3 1Z" fill="white"/>
<path fill-rule="evenodd" clip-rule="evenodd" d="M0.5 21C0.224 21 0 20.776 0 20.5V7.5C0 7.224 0.224 7 0.5 7H5.5C5.776 7 6 7.224 6 7.5V20.5C6 20.776 5.776 21 5.5 21H0.5ZM5 20V8H1V20H5Z" fill="white"/>
<path fill-rule="evenodd" clip-rule="evenodd" d="M16 20.5002C16 20.7762 16.224 21.0002 16.5 21.0002H21.5C21.776 21.0002 22 20.7762 22 20.5002V13.8452C22 9.61724 19.887 6.99023 16.483 6.99023C15.243 7.00823 14.048 7.35723 13 8.00623V7.50023C13 7.22423 12.776 7.00023 12.5 7.00023H7.5C7.224 7.00023 7 7.22423 7 7.50023V20.5002C7 20.7762 7.224 21.0002 7.5 21.0002H12.5C12.776 21.0002 13 20.7762 13 20.5002V13.5002C13 12.6732 13.673 12.0002 14.5 12.0002C15.327 12.0002 16 12.6732 16 13.5002V20.5002ZM21 13.8452V20.0002H17V13.5002C17 12.1222 15.878 11.0002 14.5 11.0002C13.122 11.0002 12 12.1222 12 13.5002V20.0002H8V8.00023H12V8.98523C12 9.17923 12.114 9.35723 12.29 9.43923C12.355 9.46923 12.428 9.48523 12.5 9.48523C12.618 9.48523 12.733 9.44323 12.823 9.36623C13.848 8.49823 15.152 8.00923 16.49 7.99023C19.314 7.99023 21 10.1792 21 13.8452Z" fill="white"/>
</svg>
