<svg width="281" height="55" viewBox="0 0 281 55" fill="none" xmlns="http://www.w3.org/2000/svg">
<path fill-rule="evenodd" clip-rule="evenodd" d="M264.063 37.8066V39.0312L260.928 40.2558V39.0312L264.063 37.8066ZM263.201 41.5214V50.0909H261.751V41.5214H263.201ZM167.169 38.4191V50.0911V50.0923H168.619V39.6685H171.816C173.007 39.6685 173.602 40.2074 173.602 41.2851C173.602 42.6453 172.531 43.5028 170.39 43.8562L170.687 45.1293C173.659 44.6291 175.145 43.3248 175.145 41.2192C175.145 39.3524 174.079 38.4191 171.948 38.4191H167.169ZM183.355 50.0923V41.5216H183.354H181.905V47.7502C181.154 48.4732 180.362 48.8354 179.532 48.8354C178.32 48.8354 177.714 48.1982 177.714 46.9251V41.5216H176.265V46.9002C176.265 49.0283 177.21 50.0923 179.101 50.0923C180.109 50.0923 181.112 49.7277 182.11 48.9984L182.36 50.0923H183.355ZM191.528 46.2394H185.99C185.99 47.9916 187.051 48.8677 189.171 48.8677C189.897 48.8677 190.622 48.7856 191.348 48.6226V49.8472C190.622 50.0102 189.74 50.0923 188.7 50.0923C185.927 50.0923 184.54 48.6313 184.54 45.7092C184.54 42.7872 185.854 41.5216 188.481 41.5216C191.107 41.5216 192.014 43.0946 191.528 46.2394ZM185.99 44.9825H190.205C190.278 43.4804 189.626 42.7299 188.247 42.7299C186.867 42.7299 186.085 43.4816 185.99 44.9825ZM193.177 41.5216V50.0911H194.626V43.8637C195.236 43.1406 196.033 42.7785 197.015 42.7785V41.5216C196.002 41.5216 195.135 41.8862 194.415 42.6155L194.157 41.5216H193.177ZM198.281 40.1338H199.19L199.503 41.5214H201.414V42.746H199.73V47.6679C199.73 48.4681 200.062 48.8676 200.725 48.8676H201.414V50.0922H200.349C198.97 50.0922 198.28 49.3218 198.28 47.7824V40.1338H198.281ZM206.312 41.5216C203.701 41.5216 202.396 42.949 202.396 45.8063C202.405 48.6574 203.701 50.0836 206.312 50.0836C208.924 50.0836 210.229 48.6624 210.229 45.8063C210.229 42.9502 208.924 41.5216 206.312 41.5216ZM208.78 45.7727C208.78 47.8348 207.957 48.8665 206.312 48.8665C204.668 48.8665 203.845 47.7913 203.845 45.7727C203.845 43.7542 204.668 42.7449 206.312 42.7449C207.957 42.7449 208.78 43.7106 208.78 45.7727ZM220.359 47.4228C220.359 45.6644 221.471 44.7858 223.696 44.7858C224.516 44.7858 225.233 44.8405 225.843 44.9488V44.1411C225.843 43.2102 225.104 42.7448 223.626 42.7448C222.78 42.7448 221.913 42.8805 221.024 43.153V41.9284C221.912 41.6559 222.779 41.5202 223.626 41.5202C226.07 41.5202 227.292 42.4337 227.292 44.2631V50.091H226.556L225.977 49.4874C225.261 49.8906 224.42 50.091 223.454 50.091C221.391 50.091 220.359 49.2012 220.359 47.4228ZM223.696 46.0103C222.438 46.0103 221.808 46.4733 221.808 47.3979C221.808 48.3773 222.356 48.8664 223.453 48.8664C224.456 48.8664 225.252 48.6437 225.843 48.1969V46.1721C225.268 46.0639 224.553 46.0091 223.696 46.0091V46.0103ZM230.45 50.0911V38.4191H229.001V50.0911H230.45ZM231.956 41.8725C233.048 41.6385 234.175 41.5216 235.34 41.5216C237.977 41.5216 239.296 42.8793 239.296 45.5948C239.296 48.594 237.969 50.0923 235.316 50.0923C234.658 50.0923 234.02 49.9567 233.404 49.6841V53.1936H231.955V41.8725H231.956ZM233.405 48.3451C233.975 48.6388 234.609 48.7856 235.309 48.7856C237.017 48.7856 237.871 47.7166 237.871 45.5773C237.871 43.7106 237.022 42.7772 235.324 42.7772C234.593 42.7772 233.953 42.8432 233.405 42.9726V48.3438V48.3451ZM243.527 44.7858C241.301 44.7858 240.189 45.6644 240.189 47.4228C240.189 49.2012 241.221 50.091 243.284 50.091C244.25 50.091 245.091 49.8906 245.807 49.4874L246.386 50.091H247.123V44.2631C247.123 42.4337 245.9 41.5202 243.456 41.5202C242.61 41.5202 241.743 41.6559 240.856 41.9284V43.153C241.743 42.8805 242.61 42.7448 243.456 42.7448C244.934 42.7448 245.673 43.2102 245.673 44.1411V44.9488C245.063 44.8405 244.347 44.7858 243.527 44.7858ZM241.638 47.3979C241.638 46.4733 242.268 46.0103 243.527 46.0103C244.383 46.0103 245.098 46.0651 245.673 46.1734V48.1981C245.083 48.6449 244.286 48.8677 243.284 48.8677C242.186 48.8677 241.638 48.3773 241.638 47.3979ZM248.699 50.0911V41.5216H249.678L249.936 42.6155C250.656 41.8862 251.523 41.5216 252.537 41.5216V42.7785C251.556 42.7785 250.759 43.1406 250.149 43.8649V50.0923H248.699V50.0911ZM256.409 44.7858C254.185 44.7858 253.071 45.6644 253.071 47.4228H253.07C253.07 49.2012 254.102 50.091 256.165 50.091C257.131 50.091 257.972 49.8906 258.688 49.4874L259.268 50.091H260.004V44.2631C260.004 42.4337 258.782 41.5202 256.338 41.5202C255.491 41.5202 254.624 41.6559 253.737 41.9284V43.153C254.625 42.8805 255.492 42.7448 256.338 42.7448C257.816 42.7448 258.555 43.2102 258.555 44.1411V44.9488C257.943 44.8405 257.229 44.7858 256.409 44.7858ZM254.52 47.3979C254.52 46.4734 255.15 46.0104 256.408 46.0103C257.264 46.0104 257.979 46.0651 258.554 46.1734V48.1981C257.964 48.6449 257.167 48.8677 256.165 48.8677C255.068 48.8677 254.52 48.3773 254.52 47.3979ZM265.009 48.3774V49.6829L265.007 49.6841C265.922 49.9567 266.872 50.0923 267.86 50.0923C270.138 50.0923 271.276 49.3295 271.276 47.6432C271.276 45.9569 270.361 45.1131 268.533 45.1131H267.202C266.392 45.1131 265.987 44.7323 265.987 43.9707C265.987 43.1543 266.671 42.7461 268.04 42.7461C269.022 42.7461 269.969 42.9092 270.884 43.2352V41.9297C269.969 41.6572 269.022 41.5216 268.04 41.5216C265.758 41.5216 264.617 42.2844 264.617 43.9707C264.617 45.657 265.479 46.5007 267.203 46.5007H268.535C269.396 46.5007 269.827 46.8815 269.827 47.6432C269.827 48.4596 269.172 48.8677 267.861 48.8677C266.873 48.8677 265.922 48.7035 265.009 48.3774ZM272.301 45.8063C272.301 42.949 273.606 41.5216 276.217 41.5216C278.828 41.5216 280.135 42.9502 280.135 45.8063C280.135 48.6624 278.828 50.0836 276.217 50.0836C273.606 50.0836 272.31 48.6574 272.301 45.8063ZM276.217 48.8677C277.862 48.8677 278.685 47.8361 278.685 45.774C278.685 43.7118 277.862 42.7461 276.217 42.7461C274.573 42.7461 273.75 43.7554 273.75 45.774C273.75 47.7925 274.573 48.8677 276.217 48.8677ZM216.759 52.3956C218.041 52.199 219.585 52.5562 220.565 53.4609H220.563C220.48 53.4261 220.398 53.391 220.317 53.356C219.979 53.2108 219.651 53.0698 219.279 52.9805C218.373 52.7627 217.444 52.815 216.58 53.1722C215.771 53.5069 214.979 53.7782 214.104 53.8517C213.509 53.9014 212.622 53.935 212.181 53.4198C213.182 53.5432 214.086 53.2222 214.995 52.8994C215.572 52.6945 216.152 52.4889 216.759 52.3956ZM222.305 52.7953C219.043 49.9877 214.467 50.3001 210.657 51.5632C210.269 51.6917 209.882 51.8351 209.493 51.979L209.493 51.979C208.654 52.2896 207.808 52.6024 206.943 52.7716C204.996 53.1524 202.95 52.85 201.028 52.4605C202.157 53.5706 204.114 53.8033 205.581 53.9103C207.902 54.0796 209.966 53.6067 212.156 52.8687L212.212 52.8499C213.855 52.2968 215.562 51.7222 217.304 51.6964C219.024 51.6703 220.69 52.2402 222.304 52.7953H222.305ZM219.241 38.1065H221.073L216.218 50.0249C215.194 50.0312 214.659 50.0573 214.38 50.0809L209.478 38.1065H211.334L215.337 47.9616L219.241 38.1065Z" fill="#808285"/>
<path d="M88.2276 49.5228V48.3367C89.2741 48.7088 90.4043 48.8949 91.6183 48.8949C93.3345 48.8949 94.1926 48.267 94.1926 47.0112C94.1926 45.9414 93.5601 45.4066 92.295 45.4066H91.0113C88.923 45.4066 87.8788 44.4996 87.8788 42.6857C87.8788 40.7787 89.216 39.8253 91.8904 39.8253C93.0531 39.8253 94.1345 39.9648 95.1345 40.2439V41.4299C94.1345 41.0578 93.0531 40.8718 91.8904 40.8718C90.0764 40.8718 89.1695 41.4764 89.1695 42.6857C89.1695 43.7554 89.7834 44.2903 91.0113 44.2903H92.295C94.4205 44.2903 95.4833 45.1973 95.4833 47.0112C95.4833 48.9646 94.195 49.9413 91.6183 49.9413C90.4043 49.9413 89.2741 49.8018 88.2276 49.5228ZM98.6577 42.5461V49.8716H97.367V42.5461H98.6577ZM98.6577 39.895V41.1159H97.367V39.895H98.6577ZM100.827 49.5228V48.4065C101.688 48.6856 102.558 48.8251 103.437 48.8251C104.604 48.8251 105.188 48.4763 105.188 47.7786C105.188 47.1275 104.781 46.8019 103.967 46.8019H102.92C101.339 46.8019 100.548 46.081 100.548 44.6391C100.548 43.2438 101.565 42.5461 103.597 42.5461C104.472 42.5461 105.339 42.6624 106.199 42.895V44.0112C105.339 43.7322 104.472 43.5926 103.597 43.5926C102.379 43.5926 101.769 43.9415 101.769 44.6391C101.769 45.2903 102.153 45.6159 102.92 45.6159H103.967C105.641 45.6159 106.478 46.3368 106.478 47.7786C106.478 49.1739 105.465 49.8716 103.437 49.8716C102.558 49.8716 101.688 49.7553 100.827 49.5228ZM108.223 41.3601H109.032L109.311 42.5461H111.292V43.5926H109.513V47.7995C109.513 48.4832 109.809 48.8251 110.399 48.8251H111.292V49.8716H110.064C108.837 49.8716 108.223 49.2135 108.223 47.8972V41.3601ZM115.96 42.5461C118.043 42.5461 119.085 43.5764 119.085 45.6368C119.085 45.9298 119.064 46.2437 119.022 46.5786H113.881C113.881 48.0763 114.755 48.8251 116.504 48.8251C117.336 48.8251 118.076 48.7321 118.722 48.546V49.5925C118.076 49.7786 117.29 49.8716 116.364 49.8716C113.848 49.8716 112.59 48.6228 112.59 46.1251C112.59 43.7391 113.713 42.5461 115.96 42.5461ZM113.881 45.5042H117.843C117.815 44.2205 117.188 43.5787 115.96 43.5787C114.657 43.5787 113.964 44.2205 113.881 45.5042ZM120.822 49.8716V42.5461H121.694L121.911 43.4671C122.613 42.8531 123.378 42.5461 124.206 42.5461C125.266 42.5461 125.99 42.881 126.376 43.5508C127.171 42.881 127.978 42.5461 128.797 42.5461C130.48 42.5461 131.322 43.474 131.322 45.3298V49.8716H130.031V45.26C130.031 44.167 129.571 43.6205 128.65 43.6205C127.962 43.6205 127.318 43.9368 126.718 44.5694V49.8716H125.427V45.281C125.427 44.174 124.971 43.6205 124.059 43.6205C123.334 43.6205 122.685 43.9368 122.113 44.5694V49.8716H120.822ZM133.073 47.66C133.073 46.1577 134.064 45.4066 136.045 45.4066C136.683 45.4066 137.32 45.4531 137.957 45.5461V44.8554C137.957 44.0136 137.299 43.5926 135.983 43.5926C135.229 43.5926 134.457 43.7089 133.666 43.9415V42.895C134.457 42.6624 135.229 42.5461 135.983 42.5461C138.159 42.5461 139.248 43.3043 139.248 44.8205V49.8716H138.522L138.075 49.146C137.345 49.6297 136.55 49.8716 135.689 49.8716C133.945 49.8716 133.073 49.1344 133.073 47.66ZM136.045 46.453C134.924 46.453 134.364 46.8484 134.364 47.6391C134.364 48.4298 134.806 48.8251 135.689 48.8251C136.583 48.8251 137.338 48.5879 137.957 48.1135V46.5926C137.32 46.4996 136.683 46.453 136.045 46.453ZM149.754 44.0391C149.233 43.788 148.638 43.6624 147.968 43.6624C146.494 43.6624 145.757 44.4461 145.757 46.0135C145.757 47.8693 146.494 48.7972 147.968 48.7972C148.638 48.7972 149.233 48.7065 149.754 48.5251V44.0391ZM151.045 49.4321C150.157 49.7251 149.061 49.8716 147.759 49.8716C145.578 49.8716 144.487 48.6018 144.487 46.0624C144.487 43.7182 145.645 42.5461 147.961 42.5461C148.594 42.5461 149.192 42.6624 149.754 42.895V39.895H151.045V49.4321ZM156.159 42.5461C158.243 42.5461 159.284 43.5764 159.284 45.6368C159.284 45.9298 159.263 46.2437 159.222 46.5786H154.08C154.08 48.0763 154.954 48.8251 156.703 48.8251C157.536 48.8251 158.275 48.7321 158.922 48.546V49.5925C158.275 49.7786 157.489 49.8716 156.564 49.8716C154.047 49.8716 152.789 48.6228 152.789 46.1251C152.789 43.7391 153.912 42.5461 156.159 42.5461ZM154.08 45.5042H158.043C158.015 44.2205 157.387 43.5787 156.159 43.5787C154.857 43.5787 154.164 44.2205 154.08 45.5042Z" fill="#808285"/>
<path fill-rule="evenodd" clip-rule="evenodd" d="M91.8328 22.318C92.9377 22.699 94.0998 22.8895 95.3191 22.8895C96.3478 22.8895 97.3385 22.7562 98.291 22.4895C99.2626 22.2227 100.12 21.8227 100.863 21.2893C101.625 20.7368 102.225 20.0605 102.663 19.2603C103.12 18.4602 103.349 17.5172 103.349 16.4313C103.349 14.5453 102.711 13.0307 101.434 11.8877C100.177 10.7256 98.4148 10.0302 96.1478 9.80163C94.6618 9.64922 93.5188 9.38251 92.7187 9.0015C91.9376 8.62048 91.3946 8.17279 91.0898 7.65842C90.804 7.12499 90.6612 6.57252 90.6612 6.001C90.6612 4.877 91.1374 4.04829 92.09 3.51487C93.0425 2.9624 94.2237 2.69569 95.6334 2.71474C96.4336 2.71474 97.1289 2.82904 97.7195 3.05765C98.3101 3.26721 98.8244 3.5625 99.2626 3.94351C99.7008 4.32453 100.072 4.79127 100.377 5.34374C100.587 5.70571 100.901 5.95337 101.32 6.08673C101.739 6.22008 102.13 6.17245 102.492 5.94385C102.816 5.73429 102.997 5.44852 103.035 5.08656C103.092 4.70554 102.987 4.30548 102.72 3.88636C102.244 3.10528 101.682 2.42897 101.034 1.85745C100.387 1.28593 99.6246 0.838233 98.7482 0.514369C97.8909 0.190507 96.8813 0.0285754 95.7192 0.0285754C94.2332 0.0285754 92.8806 0.257185 91.6613 0.714403C90.4611 1.17162 89.5086 1.8384 88.8037 2.71474C88.0988 3.59107 87.7464 4.65792 87.7464 5.91527C87.7464 7.62984 88.4227 9.06817 89.7753 10.2303C91.1279 11.3924 92.9854 12.0877 95.3477 12.3163C97.1575 12.5068 98.4529 13.0022 99.234 13.8023C100.034 14.6024 100.434 15.5073 100.434 16.517C100.434 17.3172 100.196 17.9935 99.7198 18.5459C99.2435 19.0794 98.6149 19.489 97.8338 19.7747C97.0718 20.0605 96.2335 20.2034 95.3191 20.2034C94.4999 20.2034 93.7188 20.0795 92.9758 19.8319C92.2329 19.5842 91.5947 19.2603 91.0612 18.8603C90.5469 18.4602 90.1754 18.022 89.9468 17.5458C89.7753 17.1838 89.5181 16.9171 89.1752 16.7456C88.8513 16.5551 88.518 16.498 88.175 16.5742C87.6988 16.6694 87.3559 16.8885 87.1463 17.2314C86.9558 17.5744 86.9558 17.9458 87.1463 18.3459C87.5273 19.2413 88.1274 20.0319 88.9466 20.7177C89.7658 21.4036 90.7278 21.937 91.8328 22.318ZM109.192 22.1751C109.478 22.4609 109.83 22.6038 110.249 22.6038C110.688 22.6038 111.04 22.4609 111.307 22.1751C111.593 21.8894 111.735 21.5369 111.735 21.1178V1.77172C111.735 1.33355 111.593 0.981114 111.307 0.714403C111.04 0.428642 110.688 0.285761 110.249 0.285761C109.83 0.285761 109.478 0.428642 109.192 0.714403C108.906 0.981114 108.764 1.33355 108.764 1.77172V21.1178C108.764 21.5369 108.906 21.8894 109.192 22.1751ZM118.7 22.1751C118.986 22.4609 119.338 22.6038 119.757 22.6038H131.588C132.007 22.6038 132.359 22.4609 132.645 22.1751C132.931 21.8894 133.074 21.5369 133.074 21.1178C133.074 20.6987 132.931 20.3462 132.645 20.0605C132.359 19.7747 132.007 19.6318 131.588 19.6318H121.243V1.77172C121.243 1.3526 121.1 1.00016 120.814 0.714403C120.529 0.428642 120.176 0.285761 119.757 0.285761C119.357 0.285761 119.014 0.428642 118.728 0.714403C118.443 1.00016 118.3 1.3526 118.3 1.77172V21.1178C118.3 21.5369 118.433 21.8894 118.7 22.1751ZM141.197 22.0608C142.588 22.6133 144.122 22.8895 145.798 22.8895C147.475 22.8895 148.999 22.6133 150.37 22.0608C151.761 21.4893 152.961 20.6987 153.971 19.689C154.981 18.6602 155.762 17.4505 156.314 16.0598C156.867 14.6501 157.143 13.1069 157.143 11.4305C157.143 9.754 156.867 8.22041 156.314 6.82971C155.762 5.439 154.981 4.2388 153.971 3.22911C152.961 2.20036 151.761 1.40976 150.37 0.857284C148.999 0.285761 147.475 0 145.798 0C144.122 0 142.588 0.285761 141.197 0.857284C139.807 1.40976 138.607 2.20036 137.597 3.22911C136.606 4.2388 135.835 5.439 135.282 6.82971C134.73 8.22041 134.453 9.754 134.453 11.4305C134.453 13.1069 134.73 14.6501 135.282 16.0598C135.835 17.4505 136.606 18.6602 137.597 19.689C138.607 20.6987 139.807 21.4893 141.197 22.0608ZM149.199 19.5461C148.17 19.9843 147.037 20.2034 145.798 20.2034C144.56 20.2034 143.417 19.9843 142.369 19.5461C141.34 19.0889 140.445 18.4697 139.683 17.6887C138.94 16.8885 138.359 15.955 137.94 14.8882C137.521 13.8213 137.311 12.6688 137.311 11.4305C137.311 10.1922 137.521 9.0396 137.94 7.97275C138.359 6.90591 138.94 5.98195 139.683 5.20086C140.445 4.40073 141.34 3.78158 142.369 3.34341C143.417 2.90524 144.56 2.68616 145.798 2.68616C147.037 2.68616 148.17 2.90524 149.199 3.34341C150.247 3.78158 151.152 4.40073 151.914 5.20086C152.676 5.98195 153.257 6.90591 153.657 7.97275C154.076 9.0396 154.285 10.1922 154.285 11.4305C154.285 12.6688 154.076 13.8213 153.657 14.8882C153.257 15.955 152.676 16.8885 151.914 17.6887C151.152 18.4697 150.247 19.0889 149.199 19.5461ZM167.755 22.0322C169.108 22.6038 170.556 22.8895 172.099 22.8895C173.394 22.8895 174.633 22.6895 175.814 22.2894C176.995 21.8703 178.09 21.2416 179.1 20.4034C179.271 20.251 179.386 20.0891 179.443 19.9176C179.519 19.7271 179.557 19.5366 179.557 19.3461V12.5164C179.557 12.0782 179.424 11.7258 179.157 11.459C178.89 11.1733 178.538 11.0304 178.1 11.0304H172.756C172.337 11.0304 171.985 11.1542 171.699 11.4019C171.413 11.6496 171.27 11.9639 171.27 12.3449C171.27 12.7259 171.413 13.0403 171.699 13.2879C171.985 13.5356 172.337 13.6594 172.756 13.6594H176.7V18.7406C176.101 19.1226 175.482 19.4388 174.842 19.689C173.985 20.0129 173.07 20.1748 172.099 20.1748C170.975 20.1748 169.918 19.9557 168.927 19.5175C167.936 19.0603 167.06 18.4316 166.298 17.6315C165.555 16.8314 164.974 15.9074 164.555 14.8596C164.136 13.7928 163.926 12.6497 163.926 11.4305C163.926 10.2303 164.136 9.10628 164.555 8.05848C164.974 6.99164 165.555 6.05815 166.298 5.25802C167.06 4.45788 167.936 3.82921 168.927 3.37199C169.918 2.91477 170.975 2.68616 172.099 2.68616C173.337 2.68616 174.328 2.84809 175.071 3.17196C175.833 3.49582 176.566 3.96256 177.271 4.57219C177.595 4.8389 177.938 4.96273 178.3 4.94368C178.681 4.92463 178.995 4.79127 179.243 4.54361C179.51 4.29595 179.643 3.99114 179.643 3.62917C179.643 3.45772 179.624 3.31484 179.586 3.20053C179.567 3.06718 179.51 2.94335 179.414 2.82904C179.338 2.69568 179.224 2.57185 179.071 2.45755C178.005 1.58121 176.938 0.952538 175.871 0.571523C174.823 0.190507 173.566 0 172.099 0C170.537 0 169.089 0.295286 167.755 0.88586C166.422 1.47643 165.25 2.29562 164.24 3.34341C163.25 4.37216 162.469 5.58188 161.897 6.97259C161.345 8.34424 161.068 9.8302 161.068 11.4305C161.068 13.0498 161.345 14.5548 161.897 15.9455C162.469 17.3362 163.25 18.5555 164.24 19.6033C165.25 20.632 166.422 21.4417 167.755 22.0322ZM201.999 2.50543C200.623 1.87794 198.993 1.5642 197.111 1.5642H187.911V22.8177H192.83V16.9578H197.111C198.993 16.9578 200.623 16.6542 201.999 16.047C203.396 15.4195 204.469 14.5289 205.218 13.3751C205.967 12.2011 206.341 10.8348 206.341 9.2762C206.341 7.69736 205.967 6.33106 205.218 5.1773C204.469 4.02354 203.396 3.13291 201.999 2.50543ZM200.208 12.0088C199.439 12.6363 198.315 12.95 196.838 12.95H192.83V5.57201H196.838C198.315 5.57201 199.439 5.89587 200.208 6.5436C200.977 7.17109 201.362 8.08195 201.362 9.2762C201.362 10.4502 200.977 11.3611 200.208 12.0088ZM215.675 21.7551C217.456 22.7064 219.45 23.1821 221.656 23.1821C223.863 23.1821 225.846 22.7064 227.607 21.7551C229.368 20.8037 230.755 19.4981 231.767 17.8383C232.779 16.1583 233.285 14.2758 233.285 12.191C233.285 10.1061 232.779 8.23376 231.767 6.57396C230.755 4.89392 229.368 3.57823 227.607 2.62688C225.846 1.67553 223.863 1.19985 221.656 1.19985C219.45 1.19985 217.456 1.67553 215.675 2.62688C213.914 3.57823 212.528 4.89392 211.515 6.57396C210.524 8.23376 210.028 10.1061 210.028 12.191C210.028 14.2758 210.524 16.1583 211.515 17.8383C212.528 19.4981 213.914 20.8037 215.675 21.7551ZM225.057 18.142C224.045 18.7087 222.911 18.9921 221.656 18.9921C220.401 18.9921 219.268 18.7087 218.256 18.142C217.244 17.555 216.444 16.7453 215.857 15.713C215.291 14.6807 215.007 13.5067 215.007 12.191C215.007 10.8753 215.291 9.70127 215.857 8.66895C216.444 7.63664 217.244 6.8371 218.256 6.27034C219.268 5.68334 220.401 5.38984 221.656 5.38984C222.911 5.38984 224.045 5.68334 225.057 6.27034C226.069 6.8371 226.859 7.63664 227.425 8.66895C228.012 9.70127 228.306 10.8753 228.306 12.191C228.306 13.5067 228.012 14.6807 227.425 15.713C226.859 16.7453 226.069 17.555 225.057 18.142ZM247.639 16.8971L251.738 22.8177H257.021L252.254 15.9862C253.651 15.379 254.723 14.5086 255.472 13.3751C256.242 12.2213 256.626 10.855 256.626 9.2762C256.626 7.69736 256.252 6.33106 255.503 5.1773C254.754 4.02354 253.681 3.13291 252.284 2.50543C250.908 1.87794 249.278 1.5642 247.396 1.5642H238.196V22.8177H243.115V16.8971H247.396H247.639ZM250.493 6.5436C251.262 7.17109 251.647 8.08195 251.647 9.2762C251.647 10.4502 251.262 11.3611 250.493 12.0088C249.724 12.6565 248.6 12.9804 247.123 12.9804H243.115V5.57201H247.123C248.6 5.57201 249.724 5.89587 250.493 6.5436ZM271.362 5.48092C273.447 5.78454 275.401 6.46263 277.222 7.51519L278.892 3.84137C277.455 2.97098 275.876 2.31313 274.156 1.86782C272.455 1.42251 270.694 1.19985 268.873 1.19985C267.071 1.19985 265.32 1.42251 263.62 1.86782C261.92 2.31313 260.341 2.97098 258.884 3.84137L260.554 7.51519C262.395 6.46263 264.359 5.78454 266.444 5.48092V22.8177H271.362V5.48092Z" fill="#2B373B"/>
<line x1="88.6821" y1="31.8891" x2="278.892" y2="31.8891" stroke="#808285" stroke-width="0.446503"/>
<path fill-rule="evenodd" clip-rule="evenodd" d="M53.5325 32.0289C51.1762 44.5374 40.1932 54 27 54C12.0883 54 0 41.9117 0 27C0 12.0883 12.0883 0 27 0C37.9143 0 47.3161 6.47595 51.5724 15.795C51.2644 15.7752 50.9535 15.7591 50.6396 15.7467C40.1628 15.3344 34.1287 18.3166 28.2349 21.2294C26.2526 22.2091 24.2862 23.1809 22.172 24.0131C16.0112 26.4382 7.81086 24.4169 3.61177 22.7897L3.61175 22.7897C3.27073 22.6576 3.10022 22.5915 3.02377 22.6545C2.98374 22.6875 2.95468 22.7416 2.94653 22.7985C2.93097 22.907 3.05009 23.0554 3.28834 23.3524C9.92049 31.6178 26.4744 30.1367 32.9057 26.7686C40.7378 22.6669 47.5123 20.8834 53.1911 20.4144C53.7195 22.5222 54 24.7284 54 27C54 27.8321 53.9624 28.6554 53.8887 29.4682C48.3686 29.2957 45.1643 30.7724 42.0338 32.215C40.9708 32.7048 39.9164 33.1907 38.7827 33.6068C35.4791 34.8194 31.0818 33.8087 28.8301 32.9951L28.8301 32.9951C28.6472 32.9291 28.5558 32.896 28.5148 32.9275C28.4933 32.944 28.4777 32.9711 28.4734 32.9995C28.465 33.0538 28.5289 33.128 28.6567 33.2765C32.213 37.4092 41.0897 36.6686 44.5384 34.9846C47.9042 33.341 50.9057 32.4419 53.5325 32.0289ZM53.5325 32.0289C53.6908 31.1884 53.8102 30.3342 53.8887 29.4682C53.9416 29.4699 53.9946 29.4717 54.0479 29.4736C59.0653 29.6578 62.6855 31.5214 64.4709 32.8796C64.6921 33.0479 64.8027 33.1321 64.7999 33.1934C64.7984 33.225 64.7832 33.2566 64.7603 33.2757C64.7158 33.3128 64.5859 33.2574 64.3261 33.1465C62.1077 32.2001 58.4865 31.25 53.5325 32.0289ZM53.1911 20.4144C60.6465 19.7986 66.2137 21.4483 69.807 23.0925C70.2915 23.3142 70.5337 23.425 70.6167 23.3509C70.6595 23.3127 70.6878 23.2495 70.6905 23.1863C70.6959 23.0636 70.4896 22.8953 70.077 22.5587C66.8593 19.9334 60.4455 16.364 51.5724 15.795C52.2454 17.2685 52.7898 18.8131 53.1911 20.4144Z" fill="url(#paint0_linear_1536_3601)"/>
<defs>
<linearGradient id="paint0_linear_1536_3601" x1="-2.16002" y1="6.92705" x2="35.2341" y2="51.8715" gradientUnits="userSpaceOnUse">
<stop stop-color="#4095BF"/>
<stop offset="1" stop-color="#8CBFD9"/>
</linearGradient>
</defs>
</svg>
