<svg width="24" height="20" viewBox="0 0 24 20" fill="none" xmlns="http://www.w3.org/2000/svg">
<path d="M8.93712 19.0316C6.41412 19.0316 3.67612 18.3826 0.797122 17.1036C0.580122 17.0066 0.460122 16.7686 0.512122 16.5366C0.563122 16.3106 0.768122 16.1466 1.00012 16.1466C1.09212 16.1486 1.17312 16.1496 1.25312 16.1496C2.90312 16.1496 4.52512 15.7496 5.98812 14.9876C4.21212 14.7146 2.91512 14.0976 2.05212 12.3706C1.99012 12.2456 1.98212 12.0996 2.03212 11.9696C2.08112 11.8396 2.18312 11.7356 2.31312 11.6836L3.37912 11.2576C1.36312 10.4286 0.774122 8.60158 0.509122 7.24358C0.478122 7.08258 0.527122 6.91658 0.641122 6.79858C0.735122 6.70158 0.866122 6.64658 1.00012 6.64658C1.02812 6.64658 1.05612 6.64858 1.08412 6.65358L2.72912 6.92758C1.84112 5.55158 1.59912 3.74758 2.01012 1.55458C2.04512 1.36758 2.18712 1.21358 2.37012 1.16358C2.41212 1.15258 2.45612 1.14658 2.50012 1.14658C2.64512 1.14658 2.78312 1.20958 2.87812 1.31858C5.49512 4.33258 8.00012 5.79858 10.5361 5.79858C10.8551 5.79858 11.1781 5.77458 11.5001 5.72758V5.14658C11.4931 3.87358 11.9681 2.65758 12.8381 1.72558C13.7451 0.752578 14.9771 0.191578 16.3071 0.145578C16.3671 0.143578 16.4271 0.142578 16.4871 0.142578C17.6481 0.142578 18.7691 0.549578 19.6611 1.29158L21.8631 0.665578C21.9081 0.652578 21.9541 0.646578 22.0001 0.646578C22.1491 0.646578 22.2901 0.712578 22.3851 0.827578C22.5111 0.979578 22.5351 1.19258 22.4471 1.36958L21.7261 2.81258L23.1211 3.16158C23.3051 3.20758 23.4451 3.35058 23.4871 3.53458C23.5291 3.71858 23.4661 3.90858 23.3201 4.02958L21.5001 5.55258V6.64658C21.5001 10.8166 19.3561 14.7996 15.9051 17.0426C13.8741 18.3626 11.5301 19.0316 8.93912 19.0316H8.93712ZM3.19412 16.9786C5.21012 17.6766 7.13812 18.0306 8.93712 18.0306C11.3341 18.0306 13.4951 17.4156 15.3601 16.2046C18.5311 14.1446 20.5001 10.4826 20.5001 6.64758V5.31858C20.5001 5.16958 20.5651 5.02958 20.6791 4.93458L21.9251 3.89258L20.8791 3.63058C20.7311 3.59358 20.6091 3.49258 20.5461 3.35358C20.4831 3.21558 20.4851 3.05758 20.5531 2.92158L21.0461 1.93658L19.6731 2.32658C19.6291 2.33958 19.5831 2.34558 19.5371 2.34558C19.4101 2.34558 19.2891 2.29758 19.1961 2.21158C18.4561 1.52158 17.4961 1.14158 16.4921 1.14158C16.4421 1.14158 16.3931 1.14258 16.3431 1.14458C15.2801 1.18158 14.2951 1.62958 13.5701 2.40758C12.8751 3.15258 12.4951 4.12458 12.5001 5.14358V6.14658C12.5001 6.38258 12.3321 6.58858 12.1011 6.63658C11.5761 6.74458 11.0461 6.79958 10.5261 6.79958C7.93212 6.79958 5.41612 5.48158 2.84812 2.77458C2.67812 4.73458 3.17712 6.24558 4.33312 7.27358C4.49812 7.42058 4.54712 7.66358 4.45212 7.86258C4.36912 8.03558 4.19212 8.14658 4.00012 8.14658C3.97312 8.14658 3.94512 8.14458 3.91712 8.13958L1.66312 7.76358C2.18712 9.54858 3.24612 10.4436 5.05712 10.6496C5.28512 10.6756 5.46512 10.8526 5.49612 11.0796C5.52712 11.3066 5.39912 11.5256 5.18612 11.6106L3.22012 12.3976C4.13812 13.7806 5.54412 13.9926 7.53912 14.1486C7.74812 14.1656 7.92612 14.3116 7.98212 14.5136C8.03812 14.7156 7.96112 14.9326 7.79112 15.0546C6.42312 16.0306 4.85112 16.6866 3.19412 16.9786Z" fill="white"/>
</svg>
